<?xml version="1.0" standalone="no"?>
<!DOCTYPE svg PUBLIC "-//W3C//DTD SVG 20010904//EN"
 "http://www.w3.org/TR/2001/REC-SVG-20010904/DTD/svg10.dtd">
<svg version="1.0" xmlns="http://www.w3.org/2000/svg"
 width="1280.000000pt" height="640.000000pt" viewBox="0 0 1280.000000 640.000000"
 preserveAspectRatio="xMidYMid meet">
<metadata>
Created by potrace 1.15, written by Peter Selinger 2001-2017
</metadata>
<g transform="translate(0.000000,640.000000) scale(0.100000,-0.100000)"
fill="#000000" stroke="none">
<path d="M4328 3996 c-25 -8 -60 -23 -76 -34 -37 -27 -114 -119 -130 -156 -8
-17 -26 -46 -41 -65 -43 -54 -91 -165 -91 -208 0 -61 36 -187 64 -229 14 -21
26 -44 26 -51 0 -9 -57 -13 -237 -15 -354 -4 -843 2 -843 10 0 9 79 116 88
119 4 2 42 -6 85 -16 42 -10 77 -15 77 -12 0 3 -23 21 -50 39 -28 17 -50 36
-50 41 0 5 7 22 15 37 8 16 15 44 15 63 0 23 13 55 40 95 31 49 70 132 70 152
0 13 -38 0 -75 -26 -24 -16 -46 -30 -50 -30 -10 0 -65 43 -65 51 0 4 19 20 43
34 l42 27 -44 -5 c-32 -4 -56 0 -85 14 -46 22 -67 24 -83 8 -9 -9 -20 -9 -43
1 -24 10 -37 10 -56 1 -18 -8 -43 -8 -89 -1 -101 16 -156 0 -285 -86 -139 -92
-145 -101 -161 -271 -13 -127 -12 -134 35 -205 l18 -28 -178 -1 c-99 -1 -637
-1 -1196 1 l-1018 2 0 -31 c0 -27 4 -31 28 -31 15 -1 569 -3 1232 -6 1158 -4
1207 -5 1250 -24 72 -30 180 -60 219 -60 20 0 54 7 76 15 22 8 59 14 81 15 30
0 45 6 55 21 14 20 21 20 602 22 l587 1 68 -83 c37 -46 84 -109 106 -140 21
-31 62 -88 91 -126 35 -47 60 -94 74 -138 11 -37 26 -77 32 -90 33 -64 90 -91
131 -63 12 9 37 16 55 16 24 0 37 7 52 29 30 42 26 81 -18 192 -34 83 -41 113
-47 201 -5 85 -4 110 9 134 8 17 15 37 14 46 -2 14 70 16 738 19 l739 4 12
-45 c6 -25 16 -67 23 -95 7 -27 20 -57 30 -65 12 -10 27 -54 44 -135 21 -99
25 -136 20 -212 -3 -50 -3 -103 1 -117 3 -14 26 -41 51 -59 42 -33 48 -34 116
-31 62 3 79 8 114 33 65 47 71 71 54 219 -15 125 -15 128 9 227 13 55 32 116
42 135 10 20 23 53 29 75 6 22 14 45 19 52 8 13 151 15 824 14 l356 -1 11 -32
c5 -18 13 -56 16 -85 7 -55 31 -86 61 -81 15 2 25 -16 55 -97 36 -97 37 -104
38 -238 1 -77 6 -147 12 -158 15 -30 98 -79 132 -79 15 0 37 5 47 10 12 7 34
7 59 1 39 -8 43 -7 86 33 39 37 45 48 45 84 0 22 -7 71 -16 109 -20 82 -26
374 -8 380 38 13 48 32 52 98 l4 67 46 -6 c24 -3 126 -6 225 -6 l179 0 -6 -35
c-3 -19 -9 -52 -13 -72 -6 -35 -5 -37 10 -24 15 12 17 10 17 -25 0 -22 -13
-95 -29 -162 -16 -68 -25 -120 -21 -115 5 4 18 45 29 90 20 83 67 193 82 193
12 0 2 -155 -12 -197 -6 -19 -9 -43 -6 -54 3 -11 -3 -50 -14 -87 -26 -91 -24
-128 7 -169 19 -25 33 -33 57 -33 18 0 38 -4 46 -9 23 -14 106 32 119 66 6 15
16 58 23 96 6 37 15 67 20 67 13 0 57 99 75 170 8 36 25 81 37 100 31 51 107
124 144 139 18 7 36 25 43 42 14 32 34 29 26 -4 -3 -13 -1 -11 6 6 l12 27 334
0 333 0 46 -35 c26 -20 53 -33 60 -31 7 3 31 -1 53 -9 51 -18 187 -13 249 10
33 11 46 12 52 4 5 -8 27 -1 73 25 l67 36 727 0 c400 0 832 3 960 7 l232 6 0
27 0 26 -988 -4 c-1109 -5 -1032 -10 -993 67 12 22 21 54 21 71 0 16 5 30 11
30 8 0 10 19 6 60 -5 55 -12 72 -77 180 -5 8 -14 29 -22 47 -8 21 -25 37 -48
47 -51 22 -97 29 -105 16 -4 -7 -35 -8 -89 -5 l-83 5 -59 -39 c-119 -77 -153
-139 -161 -286 -4 -55 0 -84 16 -125 12 -30 21 -58 21 -63 0 -4 -129 -6 -287
-5 l-288 3 -3 74 c-2 53 2 84 13 108 18 38 16 66 -17 200 -16 67 -28 92 -60
128 -22 25 -56 52 -74 60 -19 8 -39 25 -46 40 -7 16 -25 29 -49 37 -33 9 -46
8 -96 -12 -32 -12 -80 -30 -106 -40 -29 -10 -67 -36 -92 -61 -23 -24 -59 -57
-79 -72 -38 -30 -51 -65 -66 -168 -5 -32 -14 -67 -21 -80 -8 -15 -8 -24 -2
-26 7 -3 7 -17 1 -43 -6 -22 -7 -48 -3 -57 8 -18 8 -41 0 -79 -4 -20 -10 -21
-82 -19 -43 2 -135 4 -205 4 l-128 1 0 30 c0 17 -6 41 -14 53 -11 16 -14 51
-12 137 4 216 -35 279 -206 336 -61 19 -68 27 -68 71 0 39 -30 63 -78 63 -50
0 -99 -25 -152 -77 -26 -27 -64 -61 -84 -76 -26 -21 -36 -37 -36 -57 0 -20 -6
-31 -20 -35 -54 -17 -74 -152 -46 -312 10 -54 22 -106 27 -115 11 -21 69 -18
-531 -24 -223 -3 -442 -2 -487 2 -92 6 -96 10 -69 75 39 96 22 307 -30 368
-13 16 -24 40 -24 53 0 13 -7 34 -16 46 -16 24 -90 65 -137 76 -21 5 -33 18
-47 51 -20 47 -44 65 -84 65 -29 0 -81 -41 -101 -80 -8 -15 -39 -42 -69 -58
-57 -33 -96 -77 -96 -110 0 -12 -9 -23 -20 -27 -10 -3 -29 -22 -41 -41 -18
-29 -21 -50 -21 -114 2 -93 16 -190 37 -250 8 -24 14 -45 12 -47 -4 -3 -1023
-7 -1305 -4 l-164 1 2 93 c2 95 -1 126 -26 237 -23 102 -42 144 -72 163 -15 9
-47 35 -72 57 -38 33 -43 43 -34 57 6 10 23 19 38 21 33 4 33 15 2 30 -16 7
-26 21 -28 38 -6 55 -79 83 -160 60z"/>
</g>
</svg>
